# xmcd CD database file
#
# Track frame offsets:
#	150
#	43796
#	98406
#	129142
#	181139
#	232491
#	274431
#
# Disc length: 3995 seconds
#
# Revision: 1
# Processed by: cddbd v1.4PL0 Copyright (c) Steve Scherf et al.
# Submitted via: CDex 1.50Beta7
#
DISCID=5c0f9907
DTITLE=Time For Wellness - Time For Passion
DYEAR=1900
DGENRE=New Age
TTITLE0=John Bickerton - Sensual Waters
TTITLE1=John Bickerton - Simple Pleasures
TTITLE2=Daniel Donadi - Sense Of Jasmine
TTITLE3=Eric Bernard - Encounters
TTITLE4=Eric Bernard - Sweet Inspiration
TTITLE5=John St. John - Seabirds
TTITLE6=John St. John - Romantic Sea
EXTD=
EXTT0=
EXTT1=
EXTT2=
EXTT3=
EXTT4=
EXTT5=
EXTT6=
PLAYORDER=
